<svg xmlns="http://www.w3.org/2000/svg" width="157.04" height="23" viewBox="0 0 157.04 23">
  <g id="logo_repositorio" transform="translate(-278 -834)">
    <g id="Grupo_16115" data-name="Grupo 16115" transform="translate(201 810)">
      <path id="Trazado_1888" data-name="Trazado 1888" d="M4.54,0V-4.68H6.42L8.8,0h3.52L9.34-5.3a4.538,4.538,0,0,0,2.48-4.08,4.278,4.278,0,0,0-1.4-3.32A5.067,5.067,0,0,0,6.86-14H1.38V0Zm0-11.3h2A1.841,1.841,0,0,1,8.58-9.38a1.859,1.859,0,0,1-2,2H4.54Zm8.54,6.08A5.278,5.278,0,0,0,18.44.26c2.82,0,4.78-1.4,5.26-3.64H20.9a2.429,2.429,0,0,1-2.34,1.26,2.409,2.409,0,0,1-2.54-2.3H23.8v-.9c0-2.94-1.82-5.5-5.3-5.5a5.243,5.243,0,0,0-3.92,1.56A5.576,5.576,0,0,0,13.08-5.22Zm3-1.26A2.363,2.363,0,0,1,18.5-8.46a2.25,2.25,0,0,1,2.42,1.98ZM28.94,4.6V-1.2h.16A3.341,3.341,0,0,0,32.08.26,4.283,4.283,0,0,0,35.52-1.3a5.936,5.936,0,0,0,1.34-4.04A5.718,5.718,0,0,0,35.5-9.32a4.481,4.481,0,0,0-3.5-1.5,3.344,3.344,0,0,0-2.94,1.44H28.9v-1.18H25.84V4.6Zm-.06-9.88A2.469,2.469,0,0,1,31.3-8.02a2.449,2.449,0,0,1,2.42,2.74A2.47,2.47,0,0,1,31.3-2.54,2.449,2.449,0,0,1,28.88-5.28Zm9.42,0A5.463,5.463,0,0,0,43.98.26a5.445,5.445,0,0,0,5.7-5.54,5.338,5.338,0,0,0-1.6-3.94A5.531,5.531,0,0,0,44-10.82,5.433,5.433,0,0,0,38.3-5.28Zm3.14,0a2.559,2.559,0,0,1,2.54-2.74,2.574,2.574,0,0,1,2.56,2.74,2.574,2.574,0,0,1-2.56,2.74A2.559,2.559,0,0,1,41.44-5.28Zm9.68,2.04c.08,2.18,1.56,3.5,4.52,3.5,2.94,0,4.64-1.42,4.64-3.52,0-4.68-6.16-2.6-6.16-4.34,0-.56.6-.94,1.54-.94.98,0,1.56.42,1.66,1.08H60c-.14-2.16-1.84-3.36-4.34-3.36a4.762,4.762,0,0,0-3.18.98,2.962,2.962,0,0,0-1.16,2.38c0,4.56,5.96,2.46,5.96,4.36,0,.62-.58.98-1.62.98-1.02,0-1.64-.4-1.72-1.12ZM62.56-12.2a1.927,1.927,0,0,0,1.32.46,1.916,1.916,0,0,0,1.32-.44,1.556,1.556,0,0,0,.5-1.22,1.571,1.571,0,0,0-.5-1.24,1.927,1.927,0,0,0-1.32-.46,1.927,1.927,0,0,0-1.32.46,1.556,1.556,0,0,0-.5,1.22A1.556,1.556,0,0,0,62.56-12.2ZM65.44,0V-10.56h-3.1V0Zm3.4-8.14v4.48A3.352,3.352,0,0,0,72.52,0h2.14V-2.56H73.3a1.188,1.188,0,0,1-1.36-1.26V-8.14H74.7v-2.42H71.94v-2.86H69v1.94a.842.842,0,0,1-.86.94h-1v2.4ZM76-5.28A5.463,5.463,0,0,0,81.68.26a5.445,5.445,0,0,0,5.7-5.54,5.338,5.338,0,0,0-1.6-3.94,5.531,5.531,0,0,0-4.08-1.6A5.433,5.433,0,0,0,76-5.28Zm3.14,0a2.559,2.559,0,0,1,2.54-2.74,2.574,2.574,0,0,1,2.56,2.74,2.574,2.574,0,0,1-2.56,2.74A2.559,2.559,0,0,1,79.14-5.28ZM92.52,0V-4.8c0-1.82.98-2.92,2.5-2.92h1.22v-2.92H95.22A2.994,2.994,0,0,0,92.5-8.96h-.16v-1.6H89.42V0ZM98.5-12.2a1.927,1.927,0,0,0,1.32.46,1.916,1.916,0,0,0,1.32-.44,1.556,1.556,0,0,0,.5-1.22,1.571,1.571,0,0,0-.5-1.24,1.927,1.927,0,0,0-1.32-.46,1.927,1.927,0,0,0-1.32.46,1.556,1.556,0,0,0-.5,1.22A1.556,1.556,0,0,0,98.5-12.2ZM101.38,0V-10.56h-3.1V0Zm1.68-5.28A5.463,5.463,0,0,0,108.74.26a5.445,5.445,0,0,0,5.7-5.54,5.338,5.338,0,0,0-1.6-3.94,5.531,5.531,0,0,0-4.08-1.6A5.433,5.433,0,0,0,103.06-5.28Zm3.14,0a2.559,2.559,0,0,1,2.54-2.74,2.574,2.574,0,0,1,2.56,2.74,2.574,2.574,0,0,1-2.56,2.74A2.559,2.559,0,0,1,106.2-5.28Zm9.68,2.04c.08,2.18,1.56,3.5,4.52,3.5,2.94,0,4.64-1.42,4.64-3.52,0-4.68-6.16-2.6-6.16-4.34,0-.56.6-.94,1.54-.94.98,0,1.56.42,1.66,1.08h2.68c-.14-2.16-1.84-3.36-4.34-3.36a4.762,4.762,0,0,0-3.18.98,2.962,2.962,0,0,0-1.16,2.38c0,4.56,5.96,2.46,5.96,4.36,0,.62-.58.98-1.62.98-1.02,0-1.64-.4-1.72-1.12Z" transform="translate(109 42)" fill="#122245"/>
      <g id="Grupo_839" data-name="Grupo 839" transform="translate(-33 -126)">
        <circle id="Elipse_4" data-name="Elipse 4" cx="11.5" cy="11.5" r="11.5" transform="translate(110 150)" fill="#42c392"/>
        <line id="Línea_1" data-name="Línea 1" x2="10" transform="translate(117.5 157.574)" fill="none" stroke="#fff" stroke-linecap="round" stroke-width="2"/>
        <line id="Línea_2" data-name="Línea 2" x2="7" transform="translate(117.5 161.5)" fill="none" stroke="#fff" stroke-linecap="round" stroke-width="2"/>
        <line id="Línea_3" data-name="Línea 3" x2="4" transform="translate(117.5 165.426)" fill="none" stroke="#fff" stroke-linecap="round" stroke-width="2"/>
      </g>
    </g>
  </g>
</svg>
