<svg id="undraw_remotely_2j6y" xmlns="http://www.w3.org/2000/svg" width="882.346" height="778.999" viewBox="0 0 882.346 778.999">
  <path id="Trazado_1890" data-name="Trazado 1890" d="M501.189,80.561l3.47-5.362a80.393,80.393,0,0,0-3.56-8.333l-2.243,1.812,1.776-2.745c-1.693-3.333-3.025-5.432-3.025-5.432s-6.958,10.965-9.283,22.575l4.452,6.881-4.929-3.981a32.531,32.531,0,0,0-.27,4.078c0,13.75,4.491,24.9,10.03,24.9s10.03-11.146,10.03-24.9a42.818,42.818,0,0,0-2.294-12.847Z" transform="translate(-158.827 -60.501)" fill="#e6e6e6"/>
  <path id="Trazado_1891" data-name="Trazado 1891" d="M525.747,92.481l6.245-1.338a80.4,80.4,0,0,0,3.375-8.409l-2.868-.305,3.2-.685c1.159-3.554,1.7-5.98,1.7-5.98s-12.674,2.833-22.527,9.4l-1.717,8.014-.67-6.3a32.529,32.529,0,0,0-3.075,2.693c-9.722,9.722-14.429,20.779-10.512,24.7s14.974-.789,24.7-10.512a42.816,42.816,0,0,0,7.462-10.707Z" transform="translate(-158.827 -60.501)" fill="#e6e6e6"/>
  <path id="Trazado_1892" data-name="Trazado 1892" d="M528.028,145.685c-14.481.926-30.26-.054-47.046,0V107.253c14.791,2.3,30.565,2.066,47.046,0Z" transform="translate(-158.827 -60.501)" fill="#e6e6e6"/>
  <path id="Trazado_1893" data-name="Trazado 1893" d="M631.628,175.652l2.263-3.5a52.435,52.435,0,0,0-2.321-5.434l-1.463,1.182,1.158-1.79c-1.1-2.173-1.973-3.543-1.973-3.543a50.242,50.242,0,0,0-6.054,14.722l2.9,4.487-3.214-2.6a21.211,21.211,0,0,0-.176,2.66c0,8.967,2.929,16.236,6.541,16.236s6.541-7.269,6.541-16.236a27.921,27.921,0,0,0-1.5-8.378Z" transform="translate(-158.827 -60.501)" fill="#e6e6e6"/>
  <path id="Trazado_1894" data-name="Trazado 1894" d="M647.644,183.426l4.073-.873a52.431,52.431,0,0,0,2.2-5.484l-1.87-.2,2.085-.447c.756-2.317,1.11-3.9,1.11-3.9a50.24,50.24,0,0,0-14.691,6.129l-1.12,5.226-.437-4.109a21.223,21.223,0,0,0-2.005,1.756c-6.34,6.34-9.41,13.551-6.855,16.105s9.765-.515,16.105-6.855a27.923,27.923,0,0,0,4.866-6.982Z" transform="translate(-158.827 -60.501)" fill="#e6e6e6"/>
  <path id="Trazado_1895" data-name="Trazado 1895" d="M649.131,218.122c-9.444.6-19.734-.035-30.681,0V193.059a110.584,110.584,0,0,0,30.681,0Z" transform="translate(-158.827 -60.501)" fill="#e6e6e6"/>
  <path id="Trazado_1896" data-name="Trazado 1896" d="M643.3,292.4c-8.339.533-17.425-.031-27.091,0V270.268a97.646,97.646,0,0,0,27.091,0Z" transform="translate(-158.827 -60.501)" fill="#e6e6e6"/>
  <rect id="Rectángulo_1511" data-name="Rectángulo 1511" width="364.547" height="10.183" transform="translate(167.508 82.481)" fill="#e6e6e6"/>
  <rect id="Rectángulo_1512" data-name="Rectángulo 1512" width="364.547" height="10.183" transform="translate(167.508 154.78)" fill="#e6e6e6"/>
  <rect id="Rectángulo_1513" data-name="Rectángulo 1513" width="364.547" height="10.183" transform="translate(167.508 227.078)" fill="#e6e6e6"/>
  <circle id="Elipse_7" data-name="Elipse 7" cx="20.366" cy="20.366" r="20.366" transform="translate(450.592 177.182)" fill="#e6e6e6"/>
  <circle id="Elipse_8" data-name="Elipse 8" cx="16.293" cy="16.293" r="16.293" transform="translate(454.665 181.255)" fill="#fff"/>
  <circle id="Elipse_9" data-name="Elipse 9" cx="4.073" cy="4.073" r="4.073" transform="translate(466.885 193.475)" fill="#e6e6e6"/>
  <rect id="Rectángulo_1514" data-name="Rectángulo 1514" width="2.037" height="16.293" transform="translate(485.214 196.53) rotate(90)" fill="#e6e6e6"/>
  <rect id="Rectángulo_1515" data-name="Rectángulo 1515" width="2.037" height="16.293" transform="translate(471.976 199.584) rotate(180)" fill="#e6e6e6"/>
  <rect id="Rectángulo_1516" data-name="Rectángulo 1516" width="13.475" height="53.339" transform="translate(339.725 105.104)" fill="#e6e6e6"/>
  <rect id="Rectángulo_1517" data-name="Rectángulo 1517" width="13.475" height="6.176" transform="translate(339.725 113.526)" fill="#ccc"/>
  <rect id="Rectángulo_1518" data-name="Rectángulo 1518" width="13.475" height="6.176" transform="translate(339.725 140.476)" fill="#ccc"/>
  <rect id="Rectángulo_1519" data-name="Rectángulo 1519" width="13.475" height="53.339" transform="translate(318.951 105.104)" fill="#e6e6e6"/>
  <rect id="Rectángulo_1520" data-name="Rectángulo 1520" width="13.475" height="6.176" transform="translate(318.951 113.526)" fill="#ccc"/>
  <rect id="Rectángulo_1521" data-name="Rectángulo 1521" width="13.475" height="6.176" transform="translate(318.951 140.476)" fill="#ccc"/>
  <rect id="Rectángulo_1522" data-name="Rectángulo 1522" width="13.475" height="53.339" transform="matrix(0.896, -0.444, 0.444, 0.896, 352.735, 110.863)" fill="#e6e6e6"/>
  <rect id="Rectángulo_1523" data-name="Rectángulo 1523" width="13.475" height="6.176" transform="matrix(0.896, -0.444, 0.444, 0.896, 356.471, 118.41)" fill="#ccc"/>
  <rect id="Rectángulo_1524" data-name="Rectángulo 1524" width="13.475" height="6.176" transform="matrix(0.896, -0.444, 0.444, 0.896, 368.429, 142.563)" fill="#ccc"/>
  <rect id="Rectángulo_1525" data-name="Rectángulo 1525" width="13.475" height="53.339" transform="translate(219.567 177.403)" fill="#e6e6e6"/>
  <rect id="Rectángulo_1526" data-name="Rectángulo 1526" width="13.475" height="6.176" transform="translate(219.567 185.825)" fill="#ccc"/>
  <rect id="Rectángulo_1527" data-name="Rectángulo 1527" width="13.475" height="6.176" transform="translate(219.567 212.775)" fill="#ccc"/>
  <rect id="Rectángulo_1528" data-name="Rectángulo 1528" width="13.475" height="53.339" transform="translate(198.793 177.403)" fill="#e6e6e6"/>
  <rect id="Rectángulo_1529" data-name="Rectángulo 1529" width="13.475" height="6.176" transform="translate(198.793 185.825)" fill="#ccc"/>
  <rect id="Rectángulo_1530" data-name="Rectángulo 1530" width="13.475" height="6.176" transform="translate(198.793 212.775)" fill="#ccc"/>
  <rect id="Rectángulo_1531" data-name="Rectángulo 1531" width="13.475" height="53.339" transform="matrix(0.896, -0.444, 0.444, 0.896, 232.577, 183.161)" fill="#e6e6e6"/>
  <rect id="Rectángulo_1532" data-name="Rectángulo 1532" width="13.475" height="6.176" transform="matrix(0.896, -0.444, 0.444, 0.896, 236.313, 190.709)" fill="#ccc"/>
  <rect id="Rectángulo_1533" data-name="Rectángulo 1533" width="13.475" height="6.176" transform="matrix(0.896, -0.444, 0.444, 0.896, 248.271, 214.861)" fill="#ccc"/>
  <rect id="Rectángulo_1534" data-name="Rectángulo 1534" width="13.475" height="53.339" transform="translate(345.835 177.403)" fill="#e6e6e6"/>
  <rect id="Rectángulo_1535" data-name="Rectángulo 1535" width="13.475" height="6.176" transform="translate(345.835 185.825)" fill="#ccc"/>
  <rect id="Rectángulo_1536" data-name="Rectángulo 1536" width="13.475" height="6.176" transform="translate(345.835 212.775)" fill="#ccc"/>
  <rect id="Rectángulo_1537" data-name="Rectángulo 1537" width="13.475" height="53.339" transform="translate(325.061 177.403)" fill="#e6e6e6"/>
  <rect id="Rectángulo_1538" data-name="Rectángulo 1538" width="13.475" height="6.176" transform="translate(325.061 185.825)" fill="#ccc"/>
  <rect id="Rectángulo_1539" data-name="Rectángulo 1539" width="13.475" height="6.176" transform="translate(325.061 212.775)" fill="#ccc"/>
  <rect id="Rectángulo_1540" data-name="Rectángulo 1540" width="13.475" height="53.339" transform="matrix(0.896, -0.444, 0.444, 0.896, 358.844, 183.161)" fill="#e6e6e6"/>
  <rect id="Rectángulo_1541" data-name="Rectángulo 1541" width="13.475" height="6.176" transform="matrix(0.896, -0.444, 0.444, 0.896, 362.581, 190.709)" fill="#ccc"/>
  <rect id="Rectángulo_1542" data-name="Rectángulo 1542" width="13.475" height="6.176" transform="matrix(0.896, -0.444, 0.444, 0.896, 374.539, 214.861)" fill="#ccc"/>
  <rect id="Rectángulo_1543" data-name="Rectángulo 1543" width="53.556" height="53.556" transform="translate(449.987 32.646)" fill="#e6e6e6"/>
  <rect id="Rectángulo_1544" data-name="Rectángulo 1544" width="32.134" height="32.134" transform="translate(460.699 43.357)" fill="#ccc"/>
  <path id="Trazado_1897" data-name="Trazado 1897" d="M470,54.143l6.814,11.8,6.813,11.8H456.373l6.814-11.8Z" fill="#e6e6e6"/>
  <path id="Trazado_1898" data-name="Trazado 1898" d="M481.839,56.4l6.814,11.8L495.466,80H468.212l6.814-11.8Z" fill="#e6e6e6"/>
  <circle id="Elipse_10" data-name="Elipse 10" cx="3.946" cy="3.946" r="3.946" transform="translate(482.685 45.048)" fill="#e6e6e6"/>
  <rect id="Rectángulo_1545" data-name="Rectángulo 1545" width="53.556" height="53.556" transform="translate(179.123 32.646)" fill="#e6e6e6"/>
  <rect id="Rectángulo_1546" data-name="Rectángulo 1546" width="32.134" height="32.134" transform="translate(189.834 43.357)" fill="#ccc"/>
  <path id="Trazado_1899" data-name="Trazado 1899" d="M199.136,54.143l6.813,11.8,6.814,11.8H185.509l6.813-11.8Z" fill="#e6e6e6"/>
  <path id="Trazado_1900" data-name="Trazado 1900" d="M210.975,56.4l6.813,11.8L224.6,80H197.348l6.813-11.8Z" fill="#e6e6e6"/>
  <circle id="Elipse_11" data-name="Elipse 11" cx="3.946" cy="3.946" r="3.946" transform="translate(211.82 45.048)" fill="#e6e6e6"/>
  <path id="Trazado_1901" data-name="Trazado 1901" d="M230.324,458.345l3.47-5.362a80.389,80.389,0,0,0-3.56-8.333l-2.243,1.812,1.776-2.745c-1.693-3.332-3.025-5.432-3.025-5.432s-6.958,10.965-9.283,22.575l4.452,6.881-4.929-3.981a32.526,32.526,0,0,0-.27,4.078c0,13.75,4.491,24.9,10.03,24.9s10.03-11.146,10.03-24.9a42.818,42.818,0,0,0-2.295-12.847Z" transform="translate(-158.827 -60.501)" fill="#42c392"/>
  <path id="Trazado_1902" data-name="Trazado 1902" d="M254.882,470.266l6.245-1.338a80.386,80.386,0,0,0,3.375-8.409l-2.868-.305,3.2-.685c1.159-3.554,1.7-5.98,1.7-5.98s-12.674,2.833-22.527,9.4l-1.717,8.014-.67-6.3a32.538,32.538,0,0,0-3.075,2.693c-9.722,9.722-14.429,20.779-10.512,24.7s14.974-.789,24.7-10.512a42.818,42.818,0,0,0,7.462-10.707Z" transform="translate(-158.827 -60.501)" fill="#42c392"/>
  <path id="Trazado_1903" data-name="Trazado 1903" d="M257.163,523.469c-14.481.926-30.26-.054-47.046,0V485.038c14.791,2.3,30.565,2.066,47.046,0Z" transform="translate(-158.827 -60.501)" fill="#3f3d56"/>
  <rect id="Rectángulo_1547" data-name="Rectángulo 1547" width="195.511" height="253.554" transform="translate(500.998 475.031)" fill="#e6e6e6"/>
  <rect id="Rectángulo_1548" data-name="Rectángulo 1548" width="10.183" height="240.316" transform="translate(92.664 488.269)" fill="#e6e6e6"/>
  <rect id="Rectángulo_1549" data-name="Rectángulo 1549" width="696.509" height="20.366" transform="translate(0 457.72)" fill="#e6e6e6"/>
  <rect id="Rectángulo_1550" data-name="Rectángulo 1550" width="20.366" height="20.366" transform="translate(87.573 478.086)" fill="#e6e6e6"/>
  <path id="Trazado_1904" data-name="Trazado 1904" d="M614.155,489.8l-1.146,4.583H584.5l-1.718-4.583H510.162v46.842H687.344V489.8Z" fill="#3f3d56"/>
  <path id="Trazado_1905" data-name="Trazado 1905" d="M614.155,548.857l-1.146,4.582H584.5l-1.718-4.582H510.162V595.7H687.344V548.857Z" fill="#3f3d56"/>
  <path id="Trazado_1906" data-name="Trazado 1906" d="M614.155,607.918l-1.146,4.582H584.5l-1.718-4.582H510.162v46.841H687.344V607.918Z" fill="#3f3d56"/>
  <path id="Trazado_1907" data-name="Trazado 1907" d="M614.155,666.979l-1.146,4.582H584.5l-1.718-4.582H510.162V713.82H687.344V666.979Z" fill="#3f3d56"/>
  <path id="Trazado_1908" data-name="Trazado 1908" d="M377.785,454.665H317.706l2.036-26.475h56.006Z" fill="#e6e6e6"/>
  <rect id="Rectángulo_1551" data-name="Rectángulo 1551" width="67.207" height="6.11" transform="translate(314.651 451.611)" fill="#e6e6e6"/>
  <path id="Trazado_1909" data-name="Trazado 1909" d="M621.639,318.128H392.015a6.11,6.11,0,0,0-6.11,6.11V464.252H627.748V324.237a6.11,6.11,0,0,0-6.11-6.11Z" transform="translate(-158.827 -60.501)" fill="#3f3d56"/>
  <path id="Trazado_1910" data-name="Trazado 1910" d="M385.9,464.252v22.911a6.11,6.11,0,0,0,6.11,6.11H621.639a6.11,6.11,0,0,0,6.11-6.11V464.252Z" transform="translate(-158.827 -60.501)" fill="#e6e6e6"/>
  <rect id="Rectángulo_1552" data-name="Rectángulo 1552" width="217.914" height="122.195" transform="translate(239.298 270.355)" fill="#fff"/>
  <circle id="Elipse_12" data-name="Elipse 12" cx="6.11" cy="6.11" r="6.11" transform="translate(342.145 411.897)" fill="#3f3d56"/>
  <path id="Trazado_1911" data-name="Trazado 1911" d="M1023.862,787.558c-22.254,1.424-46.5-.083-72.3,0V728.5c22.731,3.539,46.971,3.175,72.3,0Z" transform="translate(-158.827 -60.501)" fill="#3f3d56"/>
  <path id="Trazado_1912" data-name="Trazado 1912" d="M831.432,673.3h-6.11l2.037-119.351H829.4Z" fill="#3f3d56"/>
  <path id="Trazado_1913" data-name="Trazado 1913" d="M858.926,674.107h-6.11l2.037-119.352h2.036Z" fill="#3f3d56"/>
  <path id="Trazado_1914" data-name="Trazado 1914" d="M806.993,674.107h-6.11l2.037-119.352h2.036Z" fill="#3f3d56"/>
  <path id="Trazado_1915" data-name="Trazado 1915" d="M995.35,538.078l9.863-15.242a228.515,228.515,0,0,0-10.119-23.687l-6.378,5.151,5.05-7.8c-4.812-9.473-8.6-15.442-8.6-15.442s-19.78,31.17-26.389,64.173l12.656,19.56-14.011-11.317a92.435,92.435,0,0,0-.769,11.593c0,39.086,12.765,70.771,28.512,70.771s28.512-31.685,28.512-70.771c0-12.117-2.741-24.794-6.523-36.521Z" transform="translate(-158.827 -60.501)" fill="#e6e6e6"/>
  <path id="Trazado_1916" data-name="Trazado 1916" d="M1022.844,540.114l9.863-15.242a228.492,228.492,0,0,0-10.119-23.687l-6.378,5.151,5.05-7.8c-4.812-9.473-8.6-15.442-8.6-15.442s-19.78,31.17-26.389,64.173l12.656,19.56-14.011-11.317a92.457,92.457,0,0,0-.769,11.593c0,39.086,12.765,70.771,28.512,70.771s28.512-31.685,28.512-70.771c0-12.117-2.741-24.794-6.523-36.521Z" transform="translate(-158.827 -60.501)" fill="#42c392"/>
  <path id="Trazado_1917" data-name="Trazado 1917" d="M970.911,540.114l9.863-15.242a228.482,228.482,0,0,0-10.119-23.687l-6.378,5.151,5.05-7.8c-4.812-9.473-8.6-15.442-8.6-15.442s-19.78,31.17-26.389,64.173L947,566.823l-14.011-11.317a92.445,92.445,0,0,0-.769,11.593c0,39.086,12.765,70.771,28.512,70.771s28.512-31.685,28.512-70.771c0-12.117-2.741-24.794-6.523-36.521Z" transform="translate(-158.827 -60.501)" fill="#42c392"/>
  <rect id="Rectángulo_1553" data-name="Rectángulo 1553" width="58.756" height="3.373" transform="translate(309.964 304.848)" fill="#3f3d56"/>
  <rect id="Rectángulo_1554" data-name="Rectángulo 1554" width="90.732" height="3.373" transform="translate(309.964 317.151)" fill="#9271f6"/>
  <rect id="Rectángulo_1555" data-name="Rectángulo 1555" width="73.945" height="3.373" transform="translate(309.964 328.742)" fill="#9271f6"/>
  <rect id="Rectángulo_1556" data-name="Rectángulo 1556" width="43.168" height="3.373" transform="translate(309.964 340.29)" fill="#3f3d56"/>
  <rect id="Rectángulo_1557" data-name="Rectángulo 1557" width="65.151" height="3.373" transform="translate(309.964 351.837)" fill="#3f3d56"/>
  <rect id="Rectángulo_1558" data-name="Rectángulo 1558" width="7.195" height="7.195" transform="translate(283.184 303.649)" fill="#3f3d56"/>
  <rect id="Rectángulo_1559" data-name="Rectángulo 1559" width="7.195" height="7.195" transform="translate(283.184 315.24)" fill="#9271f6"/>
  <rect id="Rectángulo_1560" data-name="Rectángulo 1560" width="7.195" height="7.195" transform="translate(283.184 326.831)" fill="#9271f6"/>
  <rect id="Rectángulo_1561" data-name="Rectángulo 1561" width="7.195" height="7.195" transform="translate(283.184 338.423)" fill="#3f3d56"/>
  <rect id="Rectángulo_1562" data-name="Rectángulo 1562" width="7.195" height="7.195" transform="translate(283.184 350.014)" fill="#3f3d56"/>
  <path id="Trazado_1918" data-name="Trazado 1918" d="M605.942,358.963H575.109a107.84,107.84,0,0,1,0-36.763h30.833a66.148,66.148,0,0,0,0,36.763Z" transform="translate(-158.827 -60.501)" fill="#9271f6"/>
  <path id="Trazado_1919" data-name="Trazado 1919" d="M381.591,432.645l-12.685-3.092a32.657,32.657,0,0,1-32.051-39.124h0a42.685,42.685,0,0,1,42.631-42.738h0a42.685,42.685,0,0,1,42.738,42.631h0C429.417,415.35,406.891,438.812,381.591,432.645Z" transform="translate(-158.827 -60.501)" fill="#2f2e41"/>
  <circle id="Elipse_13" data-name="Elipse 13" cx="31.364" cy="31.364" r="31.364" transform="translate(205.256 313.88)" fill="#ffb8b8"/>
  <path id="Trazado_1920" data-name="Trazado 1920" d="M374.992,422.108s-9.545,32.727-15,35.455,43.636,6.818,43.636,6.818-1.364-31.364,1.364-34.091S374.992,422.108,374.992,422.108Z" transform="translate(-158.827 -60.501)" fill="#ffb8b8"/>
  <path id="Trazado_1921" data-name="Trazado 1921" d="M424.083,623.926s61.364-5.455,69.546,15-5.455,141.818-5.455,141.818H462.265V681.2s-110.473-31.4-110.473-42.311S424.083,623.926,424.083,623.926Z" transform="translate(-158.827 -60.501)" fill="#2f2e41"/>
  <path id="Trazado_1922" data-name="Trazado 1922" d="M484.083,775.29l13.636,5.455s16.364-1.364,9.545,10.909a27,27,0,0,1-19.091,13.636s-25.909,9.545-27.273,0,6.818-28.636,6.818-28.636Z" transform="translate(-158.827 -60.501)" fill="#2f2e41"/>
  <path id="Trazado_1923" data-name="Trazado 1923" d="M389.992,623.926s61.364-5.455,69.546,15-5.455,141.818-5.455,141.818H428.174V681.2s-78.418-18.164-78.418-29.073c0-5.125-5.343-31.171,4.073-36.658C364.457,609.274,389.992,623.926,389.992,623.926Z" transform="translate(-158.827 -60.501)" fill="#2f2e41"/>
  <path id="Trazado_1924" data-name="Trazado 1924" d="M449.992,775.29l13.636,5.455s16.364-1.364,9.545,10.909a27,27,0,0,1-19.091,13.636s-25.909,9.546-27.273,0,6.818-28.636,6.818-28.636Z" transform="translate(-158.827 -60.501)" fill="#2f2e41"/>
  <path id="Trazado_1925" data-name="Trazado 1925" d="M361.356,453.471l40.98,4.454A30.182,30.182,0,0,1,428.6,481.692l15.933,75.416s5.455,75-5.455,79.091-25.909-16.364-46.364-13.636-47.046,8.864-47.046,8.864S341.451,497.179,340.9,486.2C339.8,464.248,361.356,453.471,361.356,453.471Z" transform="translate(-158.827 -60.501)" fill="#575a89"/>
  <path id="Trazado_1926" data-name="Trazado 1926" d="M458.427,627.823l16.824,9.908s30.183-4.331,29.241,6.278-33.889,8.559-33.889,8.559l-20.275-12.493Z" transform="translate(-158.827 -60.501)" fill="#ffb8b8"/>
  <circle id="Elipse_14" data-name="Elipse 14" cx="20.26" cy="20.26" r="20.26" transform="translate(155.483 279.215)" fill="#2f2e41"/>
  <path id="Trazado_1927" data-name="Trazado 1927" d="M353.263,349.085a20.25,20.25,0,0,0-24.247-19.836,20.25,20.25,0,1,1,12.63,38.165A20.243,20.243,0,0,0,353.263,349.085Z" transform="translate(-158.827 -60.501)" fill="#2f2e41"/>
  <path id="Trazado_1928" data-name="Trazado 1928" d="M370.643,360.575l27.313-5.029,21,13.165a31.863,31.863,0,0,1,14.678,31.1L412.6,394.473l-4.711-11.812-5.61,9.2-29.334,37.75-16.47-10.488L341.794,396.11Z" transform="translate(-158.827 -60.501)" fill="#2f2e41"/>
  <path id="Trazado_1929" data-name="Trazado 1929" d="M393.136,465.071l13.636-6.818s28.636,4.091,34.091,23.182,30,151.364,30,151.364l-23.182,10.909-32.727-80.455Z" transform="translate(-158.827 -60.501)" fill="#575a89"/>
  <path id="Trazado_1930" data-name="Trazado 1930" d="M245.917,458.23,259.565,511.2l24.2,59.5-.839,2.06L254.063,512.2Z" opacity="0.2"/>
  <path id="Trazado_1931" data-name="Trazado 1931" d="M144.084,750.379l-4.813-1.658L185.9,610.231l6.74,2.322Z" fill="#3f3d56"/>
  <path id="Trazado_1932" data-name="Trazado 1932" d="M322.291,750.379l4.814-1.658-46.626-138.49-6.739,2.322Z" fill="#3f3d56"/>
  <path id="Trazado_1933" data-name="Trazado 1933" d="M223.77,778.981l5.091.018,1.582-161.892-7.128-.025Z" fill="#3f3d56"/>
  <path id="Trazado_1934" data-name="Trazado 1934" d="M291.127,589.357,305.092,645.8a44.826,44.826,0,0,0,32.642,32.721h0a238.26,238.26,0,0,0,118.547-.764l20.851-5.5c12.116-3.2,21.227-13.6,22.089-26.1a25.685,25.685,0,0,0-2.323-12.872q-.122-.26-.246-.515a34.064,34.064,0,0,0-29.6-19.138l-22.089-.712-80.445-35.64s-27.667-14.053-50.412-15.626C299.089,560.617,287.51,574.741,291.127,589.357Z" transform="translate(-158.827 -60.501)" fill="#42c392"/>
  <rect id="Rectángulo_1563" data-name="Rectángulo 1563" width="79.426" height="107.939" transform="translate(543.257 351.309)" fill="#e6e6e6"/>
  <rect id="Rectángulo_1564" data-name="Rectángulo 1564" width="61.097" height="83.03" transform="translate(552.421 363.764)" fill="#fff"/>
  <rect id="Rectángulo_1565" data-name="Rectángulo 1565" width="29.602" height="3.373" transform="translate(576.467 385.492)" fill="#3f3d56"/>
  <rect id="Rectángulo_1566" data-name="Rectángulo 1566" width="7.195" height="7.195" transform="translate(559.87 383.625)" fill="#3f3d56"/>
  <rect id="Rectángulo_1567" data-name="Rectángulo 1567" width="29.602" height="3.373" transform="translate(576.467 399.748)" fill="#3f3d56"/>
  <rect id="Rectángulo_1568" data-name="Rectángulo 1568" width="7.195" height="7.195" transform="translate(559.87 397.881)" fill="#3f3d56"/>
  <rect id="Rectángulo_1569" data-name="Rectángulo 1569" width="29.602" height="3.373" transform="translate(576.467 414.004)" fill="#3f3d56"/>
  <rect id="Rectángulo_1570" data-name="Rectángulo 1570" width="7.195" height="7.195" transform="translate(559.87 412.137)" fill="#3f3d56"/>
  <rect id="Rectángulo_1571" data-name="Rectángulo 1571" width="6.11" height="6.11" rx="3.055" transform="translate(579.915 354.364)" fill="#3f3d56"/>
</svg>
