<svg xmlns="http://www.w3.org/2000/svg" width="100" height="100" viewBox="0 0 100 100">
  <g id="PDF" transform="translate(-2894 -2981)">
    <rect id="Rectángulo_1573" data-name="Rectángulo 1573" width="100" height="100" rx="10" transform="translate(2894 2981)" fill="#fff"/>
    <g id="layer1" transform="translate(2920.579 2996.694)">
      <g id="g899">
        <g id="g876">
          <path id="path890" d="M-47.545,183.976a6.013,6.013,0,0,0-6,6.006V236.1a6.013,6.013,0,0,0,6,6.006h35.267a6.013,6.013,0,0,0,6-6.006V198.178a4.971,4.971,0,0,0-.388-2.191,6.071,6.071,0,0,0-1.188-1.718l-.005-.007-8.75-8.582-.015-.015a6.922,6.922,0,0,0-1.854-1.187,6.777,6.777,0,0,0-2.648-.5l.02,0Z" transform="translate(53.548 -183.976)" fill="#ff2116"/>
          <path id="rect2684" d="M-46.375,187.119h26.463a5.634,5.634,0,0,1,1.831.342,5.018,5.018,0,0,1,1.276.806l0,0,8.728,8.562a4.816,4.816,0,0,1,.781,1.127,4.276,4.276,0,0,1,.218,1.3q0,.021,0,.042v37.966a4,4,0,0,1-4.031,4.033H-46.375a4,4,0,0,1-4.031-4.033V191.152a4,4,0,0,1,4.031-4.033Z" transform="translate(52.378 -185.146)" fill="#f5f5f5"/>
          <path id="path2697" d="M-35.037,225.228c-1.357-1.357.111-3.222,4.1-5.2l2.508-1.246.977-2.137c.537-1.176,1.339-3.094,1.782-4.263l.805-2.125-.555-1.573c-.682-1.934-.925-4.84-.493-5.885.586-1.415,2.507-1.27,3.267.247.594,1.185.533,3.331-.171,6.037L-23.4,211.3l.508.863a29.948,29.948,0,0,0,1.815,2.5l1.35,1.68,1.68-.219c5.338-.7,7.166.487,7.166,2.185,0,2.142-4.192,2.319-7.711-.153a10.69,10.69,0,0,1-1.336-1.109s-2.205.449-3.291.742c-1.121.3-1.68.491-3.321,1.045,0,0-.576.836-.951,1.444a15.556,15.556,0,0,1-4.191,4.819c-1.3.764-2.67.816-3.358.128Zm2.13-.761a16.062,16.062,0,0,0,3.376-3.993l.433-.686-1.971.991c-3.044,1.53-4.436,2.973-3.712,3.845.407.49.893.449,1.874-.156Zm19.77-5.549a1.145,1.145,0,0,0-.206-2,5.54,5.54,0,0,0-2.891-.373c-1.048.071-2.734.283-3.019.347,0,0,.926.64,1.337.875a17.763,17.763,0,0,0,2.848,1.19C-14.11,219.249-13.556,219.218-13.136,218.917Zm-7.949-3.3a19.505,19.505,0,0,1-1.707-2.2,12.27,12.27,0,0,1-.956-1.425s-.466,1.5-.847,2.4l-1.192,2.945-.345.668s1.837-.6,2.771-.846c.99-.259,3-.654,3-.654Zm-2.562-10.273a4.314,4.314,0,0,0-.147-2.419c-.862-.942-1.9-.156-1.725,2.083a15.273,15.273,0,0,0,.5,2.835l.455,1.443.32-1.087A28.517,28.517,0,0,0-23.648,205.34Z" transform="translate(46.841 -190.616)" fill="#ff2116"/>
          <g id="g858" transform="translate(14.112 40.897)">
            <path id="path845" d="M-31.067,249.125h2.2a5.99,5.99,0,0,1,1.715.2,2.013,2.013,0,0,1,1.108.88,2.893,2.893,0,0,1,.45,1.636,2.975,2.975,0,0,1-.365,1.513,2.144,2.144,0,0,1-.984.913,4.8,4.8,0,0,1-1.891.28h-.763v3.475h-1.473Zm1.473,1.141v3.1h.73a1.922,1.922,0,0,0,1.35-.365,1.593,1.593,0,0,0,.378-1.187,1.781,1.781,0,0,0-.248-.991,1.016,1.016,0,0,0-.548-.469,3.427,3.427,0,0,0-.932-.091Z" transform="translate(31.067 -249.125)" fill="#2c2c2c"/>
            <path id="path847" d="M-20.547,249.125h2a4.524,4.524,0,0,1,2.321.515,3.2,3.2,0,0,1,1.317,1.532,5.516,5.516,0,0,1,.45,2.256,6.3,6.3,0,0,1-.4,2.327,3.7,3.7,0,0,1-1.226,1.643,3.81,3.81,0,0,1-2.347.626h-2.112Zm1.473,1.18v6.539h.613a2.064,2.064,0,0,0,1.865-.887,4.314,4.314,0,0,0,.58-2.38q0-3.273-2.445-3.273Z" transform="translate(27.151 -249.125)" fill="#2c2c2c"/>
            <path id="path849" d="M-8.593,249.125h4.942v1.18H-7.119v2.66h2.777v1.18H-7.119v3.879H-8.593Z" transform="translate(22.701 -249.125)" fill="#2c2c2c"/>
          </g>
        </g>
      </g>
    </g>
  </g>
</svg>
