<svg xmlns="http://www.w3.org/2000/svg" width="100" height="100" viewBox="0 0 100 100">
  <g id="word" transform="translate(-2894 -2981)">
    <g id="PDF">
      <rect id="Rectángulo_1573" data-name="Rectángulo 1573" width="100" height="100" rx="10" transform="translate(2894 2981)" fill="#fff"/>
    </g>
    <g id="g3103" transform="translate(2895.984 3004)">
      <path id="path6" d="M49.567,0h3.711V4.965C59.919,5,66.553,4.9,73.188,5a2.137,2.137,0,0,1,2.4,2.371c.106,12.226-.025,24.459.062,36.685-.062,1.254.124,2.644-.6,3.755a5.658,5.658,0,0,1-3.134.614c-6.212-.031-12.419-.019-18.631-.019v4.965H49.4c-9.446-1.725-18.917-3.308-28.381-4.965q-.009-21.719,0-43.431C30.532,3.314,40.053,1.694,49.567,0Z" fill="#2a5699"/>
      <path id="path46" d="M73,11H93.481V50.72H73V45.755H89.136V43.272H73v-3.1H89.136V37.687H73v-3.1H89.136V32.1H73V29H89.136V26.516H73v-3.1H89.136V20.93H73v-3.1H89.136V15.344H73Z" transform="translate(-19.722 -4.173)" fill="#fff"/>
      <path id="path88" d="M36.942,28.226c1.179-.068,2.358-.118,3.538-.18.825,4.189,1.669,8.372,2.563,12.543.7-4.307,1.477-8.6,2.228-12.9,1.241-.043,2.482-.112,3.718-.186-1.4,6.014-2.631,12.077-4.164,18.054-1.036.54-2.588-.025-3.817.062-.825-4.109-1.787-8.192-2.526-12.319-.726,4.009-1.669,7.981-2.5,11.966q-1.787-.093-3.587-.217c-1.03-5.461-2.24-10.886-3.2-16.36,1.061-.05,2.129-.093,3.19-.13.639,3.953,1.365,7.888,1.924,11.848.875-4.059,1.769-8.118,2.638-12.177Z" transform="translate(-3.101 -10.433)" fill="#fff"/>
    </g>
  </g>
</svg>
