<svg xmlns="http://www.w3.org/2000/svg" width="16.4" height="20" viewBox="0 0 16.4 20">
  <g id="registrar" transform="translate(-2610 -1178)">
    <g id="Icon_feather-file" data-name="Icon feather-file" transform="translate(2605 1176)">
      <path id="Trazado_583" data-name="Trazado 583" d="M14.1,3H7.8A1.8,1.8,0,0,0,6,4.8V19.2A1.8,1.8,0,0,0,7.8,21H18.6a1.8,1.8,0,0,0,1.8-1.8V9.3Z" fill="none" stroke="#42c392" stroke-linecap="round" stroke-linejoin="round" stroke-width="2"/>
      <path id="Trazado_584" data-name="Trazado 584" d="M19.5,3V9.3h6.3" transform="translate(-5.4)" fill="none" stroke="#42c392" stroke-linecap="round" stroke-linejoin="round" stroke-width="2"/>
    </g>
    <path id="Icon_ionic-ios-add" data-name="Icon ionic-ios-add" d="M13.035,10.865h-1.63V9.235a.27.27,0,1,0-.54,0v1.63H9.235a.27.27,0,0,0,0,.54h1.63v1.63a.27.27,0,0,0,.54,0v-1.63h1.63a.27.27,0,0,0,0-.54Z" transform="translate(2607.064 1179.694)" stroke="#42c392" stroke-width="1"/>
  </g>
</svg>
